<svg version="1.2" xmlns="http://www.w3.org/2000/svg" viewBox="0 0 4000 4000" width="4000" height="4000"><style>.a{fill:#ff964f}</style><path class="a" d="m3600.3 810.3l-10.3 1197.1h-0.2c-11 880.1-720.5 1590-1594 1590-864.4 0-1568.2-695.2-1593.5-1562.5h350.5c32 665.7 576.2 1195.5 1243 1195.5 324 0 635.7-134.2 863.7-363.5 248.3-249.6 363.8-580.9 374.9-929.1q0.3-10.9 0.5-21.8c7.3-317.1-8.2-636.2-8.2-953v-535.8c-93.3-73.1-193.2-138-298.7-193.8l-0.2 0.3v445.9 460.2 756.1c0 514.3-416.9 931.2-931.2 931.2-514.2 0-931.1-416.9-931.1-931.2 0-514.2 416.9-931.1 931.1-931.1 219.1 0 420.5 75.6 579.5 202.2l1.1-1.4v-304.6-374.7-397.2c-183.7-55.7-378.6-85.7-580.6-85.7-1102.8 0-1996.8 894-1996.8 1996.8 0 1102.8 894 1996.8 1996.8 1996.8 1102.8 0 1996.8-894 1996.8-1996.8 0-445.9-146.1-857.6-393.1-1189.9z"/><path class="a" d="m1996.6 2471.9c-318.4 0-575.9-257.5-575.9-575.9 0-318.5 257.5-576 575.9-576 318.5 0 576 257.5 576 576 0 318.4-257.5 575.9-576 575.9z"/></svg>